#!OML:ASF E:\Steps\Project 1\Capture day 1\Session 2\Subject.ASF
:FULLY-SPECIFIED
:DEGREES
376
root 4.14531 18.7029 10.2003 -147.578 1.66251 174.572
lowerback -13.8595 -3.39641 -7.76296
upperback 2.8631 -2.88401 -1.30397
thorax 11.3141 -1.7762 2.27701
lowerneck -3.17979 0.398095 -2.17353
upperneck 14.9876 0.848533 3.83661
head 4.9901 0.782736 1.61587
rclavicle -2.78299e-015 2.06736e-014
rhumerus -39.4424 -10.7205 -78.3622
rradius 54.5472
rwrist -6.75021
rhand -9.22312 -410.792
rfingers 7.12502
rthumb 16.7317 -440.091
lclavicle -2.78299e-015 2.06736e-014
lhumerus -27.9253 -15.808 80.6773
lradius 30.6862
lwrist 3.12517
lhand -20.7204 -13.2271
lfingers 7.12502
lthumb 5.64428 16.6777
rfemur -59.3511 11.7677 10.5883
rtibia 45.0123
rfoot -24.1522 -5.1023
rtoes -35.1645
lfemur -48.8763 -3.62766 -26.7304
ltibia 27.2035
lfoot -8.96972 1.20197
ltoes -22.4711
377
root 4.09702 18.7137 10.1135 -148.684 1.9779 174.817
lowerback -13.5057 -3.13499 -7.34492
upperback 3.12792 -2.64666 -1.27517
thorax 11.354 -1.65109 2.13864
lowerneck -3.31453 0.370705 -2.18887
upperneck 15.2421 0.849765 3.64529
head 5.09294 0.777743 1.56329
rclavicle 1.23246e-014 7.07673e-014
rhumerus -39.666 -10.9295 -78.1992
rradius 54.2632
rwrist -6.70511
rhand -9.44691 -410.736
rfingers 7.12502
rthumb 16.5162 -440.053
lclavicle 1.23246e-014 7.07673e-014
lhumerus -28.1954 -15.5588 81.0135
lradius 30.4296
lwrist 2.87015
lhand -20.7402 -13.3021
lfingers 7.12502
lthumb 5.62523 16.6032
rfemur -57.2895 12.5192 10.9327
rtibia 43.093
rfoot -24.0346 -4.49995
rtoes -34.9047
lfemur -47.0081 -3.19435 -26.8506
ltibia 26.6113
lfoot -9.1668 1.23728
ltoes -23.7017
378
root 4.05336 18.7186 10.0314 -149.515 2.13479 174.802
lowerback -13.4574 -3.00584 -7.10141
upperback 3.31661 -2.51279 -1.302
thorax 11.5098 -1.57929 2.00083
lowerneck -4.10027 0.0941372 -2.5961
upperneck 16.3626 0.524456 3.89923
head 5.58297 0.644687 1.71303
rclavicle -7.95139e-016 2.22639e-014
rhumerus -39.9037 -11.1874 -78.0937
rradius 54.0063
rwrist -6.53889
rhand -9.8889 -410.538
rfingers 7.12502
rthumb 16.0906 -439.89
lclavicle -7.95139e-016 2.22639e-014
lhumerus -28.4886 -15.3714 81.2866
lradius 30.2017
lwrist 2.67664
lhand -20.748 -13.2794
lfingers 7.12502
lthumb 5.61763 16.6262
rfemur -55.623 12.995 10.9543
rtibia 41.4254
rfoot -23.7002 -4.29411
rtoes -33.8148
lfemur -45.5038 -3.06248 -27.1455
ltibia 26.1145
lfoot -9.40568 1.12655
ltoes -24.156
379
root 4.03099 18.7166 10.0054 -149.129 1.6231 174.271
lowerback -13.9167 -3.31467 -7.32687
upperback 3.05736 -2.85375 -1.26974
thorax 11.5378 -1.74865 2.06791
lowerneck -3.58154 0.209668 -2.41793
upperneck 15.9645 0.693269 3.64949
head 5.36647 0.712589 1.60615
rclavicle -3.06128e-014 2.54444e-014
rhumerus -40.0522 -11.2866 -78.1021
rradius 53.7311
rwrist -6.50607
rhand -10.0912 -410.616
rfingers 7.12502
rthumb 15.8958 -439.984
lclavicle -3.06128e-014 2.54444e-014
lhumerus -28.8894 -15.1868 81.5047
lradius 30.0745
lwrist 2.59465
lhand -20.7895 -13.2314
lfingers 7.12502
lthumb 5.57756 16.6752
rfemur -55.6416 12.5271 10.4002
rtibia 40.3307
rfoot -23.4333 -4.59324
rtoes -33.4786
lfemur -45.9569 -3.48938 -27.7937
ltibia 26.4421
lfoot -9.51948 0.464881
ltoes -24.1717
380
root 3.99042 18.7184 9.924 -149.984 1.85083 174.333
lowerback -13.9183 -3.21927 -7.03334
upperback 3.22525 -2.77539 -1.28318
thorax 11.7019 -1.70041 1.90201
lowerneck -2.98349 0.34971 -2.4247
upperneck 15.5845 0.908611 3.44141
head 5.1414 0.79786 1.54507
rclavicle -4.05521e-014 -4.45278e-014
rhumerus -40.2367 -11.2463 -78.0686
rradius 53.3888
rwrist -6.37972
rhand -9.48128 -411.247
rfingers 7.12502
rthumb 16.4831 -440.567
lclavicle -4.05521e-014 -4.45278e-014
lhumerus -29.37 -14.8213 81.7212
lradius 30.0078
lwrist 2.55627
lhand -20.6852 -13.1764
lfingers 7.12502
lthumb 5.67827 16.7275
rfemur -53.8264 13.025 10.5333
rtibia 38.6088
rfoot -23.1511 -4.41707
rtoes -32.8024
lfemur -44.4449 -3.29209 -27.9874
ltibia 25.942
lfoot -9.67771 0.510735
ltoes -24.2421
381
root 3.96421 18.7063 9.89527 -149.473 1.4629 173.988
lowerback -14.5969 -3.32169 -7.10358
upperback 2.94385 -3.08187 -1.19218
thorax 11.8117 -1.93464 1.92586
lowerneck -2.92037 0.302239 -2.85496
upperneck 15.577 0.842541 3.70363
head 5.12679 0.758365 1.69446
rclavicle 2.52457e-014 -1.59028e-015
rhumerus -40.3157 -11.3737 -77.9436
rradius 52.8874
rwrist -6.14177
rhand -9.24943 -411.144
rfingers 7.12502
rthumb 16.7063 -440.445
lclavicle 2.52457e-014 -1.59028e-015
lhumerus -29.6368 -14.6114 81.9219
lradius 29.9124
lwrist 2.75131
lhand -20.3889 -13.061
lfingers 7.12502
lthumb 5.9644 16.8351
rfemur -53.8594 12.7599 10.0186
rtibia 37.4971
rfoot -22.9154 -4.7491
rtoes -31.527
lfemur -45.1036 -3.52327 -28.5339
ltibia 26.4848
lfoot -9.84772 -0.0845111
ltoes -24.2606
382
root 3.93915 18.6908 9.87204 -148.689 1.02334 173.621
lowerback -15.4488 -3.51164 -7.16757
upperback 2.60995 -3.27033 -1.09834
thorax 11.9627 -2.02466 1.98628
lowerneck -2.92347 0.177625 -2.99892
upperneck 15.6317 0.679668 3.76572
head 5.14901 0.67677 1.73031
rclavicle -1.17283e-014 -3.49861e-014
rhumerus -40.3511 -11.7791 -77.7344
rradius 52.3832
rwrist -6.01752
rhand -9.42671 -410.971
rfingers 7.12502
rthumb 16.5356 -440.286
lclavicle -1.17283e-014 -3.49861e-014
lhumerus -29.8012 -14.6432 82.198
lradius 29.8566
lwrist 3.03466
lhand -20.4458 -13.2839
lfingers 7.12502
lthumb 5.90939 16.6137
rfemur -54.3134 12.2868 9.4912
rtibia 36.7398
rfoot -22.6711 -5.05177
rtoes -29.6461
lfemur -46.152 -3.95941 -29.0066
ltibia 27.1708
lfoot -10.0903 -0.584924
ltoes -24.5328
383
root 3.91374 18.6868 9.83871 -148.398 0.863669 173.334
lowerback -15.863 -3.53194 -7.29587
upperback 2.43058 -3.24691 -1.08229
thorax 12.0088 -2.02045 2.06823
lowerneck -3.12941 0.0120668 -2.65951
upperneck 15.8907 0.502375 3.32039
head 5.27401 0.587624 1.53011
rclavicle -2.3059e-014 -1.92821e-014
rhumerus -40.3578 -12.3275 -77.5846
rradius 51.8868
rwrist -5.88001
rhand -9.47119 -411.258
rfingers 7.12502
rthumb 16.4928 -440.577
lclavicle -2.3059e-014 -1.92821e-014
lhumerus -29.9532 -14.6909 82.4376
lradius 29.8023
lwrist 3.03022
lhand -20.8845 -13.5793
lfingers 7.12502
lthumb 5.48586 16.3297
rfemur -54.1505 12.0749 9.10446
rtibia 35.9085
rfoot -22.2697 -5.11021
rtoes -27.1635
lfemur -46.4884 -4.21596 -29.3922
ltibia 27.5627
lfoot -10.2282 -0.934909
ltoes -23.5719
